<?xml version="1.0" encoding="iso-8859-1"?>
<!-- Generator: Adobe Illustrator 16.0.0, SVG Export Plug-In . SVG Version: 6.00 Build 0)  -->
<!DOCTYPE svg PUBLIC "-//W3C//DTD SVG 1.1//EN" "http://www.w3.org/Graphics/SVG/1.1/DTD/svg11.dtd">
<svg fill="#757575" version="1.1" id="Capa_1" xmlns="http://www.w3.org/2000/svg" xmlns:xlink="http://www.w3.org/1999/xlink" x="0px" y="0px"
	 width="558.468px" height="558.468px" viewBox="0 0 558.468 558.468" style="enable-background:new 0 0 558.468 558.468;"
	 xml:space="preserve">
<g>
	<g>
		<circle cx="282.187" cy="91.272" r="51.303"/>
		<path d="M98.147,243.574c2.353,0.602,4.781,0.918,7.21,0.918c13.694,0,26.985-9.869,35.076-24.796l79.436-16.438v148.965h0.201
			V532.4c0,14.392,11.667,26.058,26.048,26.058c14.392,0,26.048-11.666,26.048-26.058V352.233h16.285V532.41
			c0,14.392,11.666,26.058,26.048,26.058c14.383,0,26.049-11.666,26.049-26.058V352.233h0.182V203.326l77.112,15.95
			c8.07,15.147,21.458,25.207,35.275,25.216c2.438,0,4.867-0.316,7.21-0.918c9.983-2.592,18.112-10.557,22.31-21.87
			c3.854-10.385,4.246-22.807,1.1-34.979c-5.891-22.788-22.3-38.729-40.048-39.188L403.593,6.309
			c-1.311-4.609-6.111-7.287-10.72-5.977c-4.619,1.31-7.287,6.11-5.986,10.72l40.162,141.42
			c-5.929,3.949-10.767,9.983-13.655,17.757c-0.42,1.147-0.649,2.4-0.984,3.596l-85.623-17.71c-3.041-0.631-6.053-0.574-8.902,0.029
			h-75.438c-2.85-0.603-5.862-0.669-8.903-0.029l-87.354,18.073c-0.363-1.32-0.622-2.687-1.09-3.949
			c-2.897-7.774-7.736-13.799-13.665-17.758l40.163-141.419c1.3-4.619-1.368-9.41-5.986-10.72c-4.609-1.301-9.409,1.367-10.72,5.977
			l-40.105,141.229c-17.748,0.459-34.157,16.4-40.048,39.187c-3.155,12.173-2.763,24.595,1.1,34.98
			C80.036,233.017,88.174,240.982,98.147,243.574z M429.669,176.273c1.291-3.471,4.352-9.534,10.385-11.092
			c0.928-0.239,1.894-0.363,2.869-0.363c8.463,0,19.756,9.821,24.012,26.258c2.228,8.635,2.037,17.595-0.564,24.576
			c-1.301,3.471-4.36,9.534-10.385,11.093c-3.758,0.985-8.224-0.287-12.518-3.299c9.123-0.975,16.993-7.65,18.963-17.117
			c2.429-11.733-5.116-23.228-16.859-25.656l-16.17-3.347C429.498,176.99,429.545,176.608,429.669,176.273z M91.559,191.085
			c4.255-16.438,15.539-26.259,24.011-26.259c0.976,0,1.941,0.125,2.869,0.363c6.024,1.559,9.094,7.612,10.385,11.093
			c0.162,0.44,0.239,0.956,0.382,1.415l-14.439,2.984c-11.733,2.429-19.288,13.913-16.859,25.656
			c1.846,8.913,8.913,15.405,17.356,16.955c-4.351,3.127-8.912,4.466-12.737,3.471c-6.034-1.559-9.094-7.621-10.385-11.093
			C89.522,208.671,89.321,199.72,91.559,191.085z"/>
	</g>
</g>
<g>
</g>
<g>
</g>
<g>
</g>
<g>
</g>
<g>
</g>
<g>
</g>
<g>
</g>
<g>
</g>
<g>
</g>
<g>
</g>
<g>
</g>
<g>
</g>
<g>
</g>
<g>
</g>
<g>
</g>
</svg>
